<mxfile host="app.diagrams.net" agent="Mozilla/5.0 (Windows NT 10.0; Win64; x64) AppleWebKit/537.36 (KHTML, like Gecko) Chrome/128.0.0.0 Safari/537.36 Edg/128.0.0.0" version="24.7.10">
  <diagram name="第 1 页" id="8vXSN7fhM1UmKQHkLlOZ">
    <mxGraphModel dx="946" dy="569" grid="1" gridSize="10" guides="1" tooltips="1" connect="1" arrows="1" fold="1" page="1" pageScale="1" pageWidth="827" pageHeight="1169" background="none" math="0" shadow="0">
      <root>
        <mxCell id="0" />
        <mxCell id="1" parent="0" />
        <mxCell id="Z1PE1oh3Be7AtQPSp_Xx-10" value="128*128*32" style="shape=table;startSize=20;container=1;collapsible=0;childLayout=tableLayout;fixedRows=1;rowLines=0;fontStyle=0;strokeColor=default;fontSize=16;" vertex="1" parent="1">
          <mxGeometry x="40" y="50" width="110" height="50" as="geometry" />
        </mxCell>
        <mxCell id="Z1PE1oh3Be7AtQPSp_Xx-14" value="" style="shape=tableRow;horizontal=0;startSize=0;swimlaneHead=0;swimlaneBody=0;top=0;left=0;bottom=0;right=0;collapsible=0;dropTarget=0;fillColor=none;points=[[0,0.5],[1,0.5]];portConstraint=eastwest;strokeColor=inherit;fontSize=16;" vertex="1" parent="Z1PE1oh3Be7AtQPSp_Xx-10">
          <mxGeometry y="20" width="110" height="30" as="geometry" />
        </mxCell>
        <mxCell id="Z1PE1oh3Be7AtQPSp_Xx-15" value="CT" style="shape=partialRectangle;html=1;whiteSpace=wrap;connectable=0;fillColor=none;top=0;left=0;bottom=0;right=0;overflow=hidden;strokeColor=inherit;fontSize=16;" vertex="1" parent="Z1PE1oh3Be7AtQPSp_Xx-14">
          <mxGeometry width="50" height="30" as="geometry">
            <mxRectangle width="50" height="30" as="alternateBounds" />
          </mxGeometry>
        </mxCell>
        <mxCell id="Z1PE1oh3Be7AtQPSp_Xx-16" value="BBOX" style="shape=partialRectangle;html=1;whiteSpace=wrap;connectable=0;fillColor=none;top=0;left=0;bottom=0;right=0;align=left;spacingLeft=6;overflow=hidden;strokeColor=inherit;fontSize=16;" vertex="1" parent="Z1PE1oh3Be7AtQPSp_Xx-14">
          <mxGeometry x="50" width="60" height="30" as="geometry">
            <mxRectangle width="60" height="30" as="alternateBounds" />
          </mxGeometry>
        </mxCell>
        <mxCell id="Z1PE1oh3Be7AtQPSp_Xx-20" value="32*32*32" style="shape=table;startSize=20;container=1;collapsible=0;childLayout=tableLayout;fixedRows=1;rowLines=0;fontStyle=0;strokeColor=default;fontSize=16;" vertex="1" parent="1">
          <mxGeometry x="40" y="220" width="110" height="50" as="geometry" />
        </mxCell>
        <mxCell id="Z1PE1oh3Be7AtQPSp_Xx-21" value="" style="shape=tableRow;horizontal=0;startSize=0;swimlaneHead=0;swimlaneBody=0;top=0;left=0;bottom=0;right=0;collapsible=0;dropTarget=0;fillColor=none;points=[[0,0.5],[1,0.5]];portConstraint=eastwest;strokeColor=inherit;fontSize=16;" vertex="1" parent="Z1PE1oh3Be7AtQPSp_Xx-20">
          <mxGeometry y="20" width="110" height="30" as="geometry" />
        </mxCell>
        <mxCell id="Z1PE1oh3Be7AtQPSp_Xx-22" value="CT" style="shape=partialRectangle;html=1;whiteSpace=wrap;connectable=0;fillColor=none;top=0;left=0;bottom=0;right=0;overflow=hidden;strokeColor=inherit;fontSize=16;" vertex="1" parent="Z1PE1oh3Be7AtQPSp_Xx-21">
          <mxGeometry width="50" height="30" as="geometry">
            <mxRectangle width="50" height="30" as="alternateBounds" />
          </mxGeometry>
        </mxCell>
        <mxCell id="Z1PE1oh3Be7AtQPSp_Xx-23" value="BBOX" style="shape=partialRectangle;html=1;whiteSpace=wrap;connectable=0;fillColor=none;top=0;left=0;bottom=0;right=0;align=left;spacingLeft=6;overflow=hidden;strokeColor=inherit;fontSize=16;" vertex="1" parent="Z1PE1oh3Be7AtQPSp_Xx-21">
          <mxGeometry x="50" width="60" height="30" as="geometry">
            <mxRectangle width="60" height="30" as="alternateBounds" />
          </mxGeometry>
        </mxCell>
        <mxCell id="Z1PE1oh3Be7AtQPSp_Xx-24" value="Assets" style="childLayout=tableLayout;recursiveResize=0;strokeColor=#98bf21;fillColor=#A7C942;shadow=1;fontSize=5;" vertex="1" parent="1">
          <mxGeometry x="40" y="123" width="110" height="70" as="geometry" />
        </mxCell>
        <mxCell id="Z1PE1oh3Be7AtQPSp_Xx-25" style="shape=tableRow;horizontal=0;startSize=0;swimlaneHead=0;swimlaneBody=0;top=0;left=0;bottom=0;right=0;dropTarget=0;collapsible=0;recursiveResize=0;expand=0;fontStyle=0;strokeColor=inherit;fillColor=#ffffff;fontSize=5;" vertex="1" parent="Z1PE1oh3Be7AtQPSp_Xx-24">
          <mxGeometry width="110" height="14" as="geometry" />
        </mxCell>
        <mxCell id="Z1PE1oh3Be7AtQPSp_Xx-26" value="&lt;font style=&quot;font-size: 5px;&quot;&gt;Title 1&lt;/font&gt;" style="connectable=0;recursiveResize=0;strokeColor=inherit;fillColor=#A7C942;align=center;fontStyle=1;fontColor=#FFFFFF;html=1;fontSize=5;" vertex="1" parent="Z1PE1oh3Be7AtQPSp_Xx-25">
          <mxGeometry width="37" height="14" as="geometry">
            <mxRectangle width="37" height="14" as="alternateBounds" />
          </mxGeometry>
        </mxCell>
        <mxCell id="Z1PE1oh3Be7AtQPSp_Xx-27" value="Title 2" style="connectable=0;recursiveResize=0;strokeColor=inherit;fillColor=#A7C942;align=center;fontStyle=1;fontColor=#FFFFFF;html=1;fontSize=5;" vertex="1" parent="Z1PE1oh3Be7AtQPSp_Xx-25">
          <mxGeometry x="37" width="37" height="14" as="geometry">
            <mxRectangle width="37" height="14" as="alternateBounds" />
          </mxGeometry>
        </mxCell>
        <mxCell id="Z1PE1oh3Be7AtQPSp_Xx-28" value="Title 3" style="connectable=0;recursiveResize=0;strokeColor=inherit;fillColor=#A7C942;align=center;fontStyle=1;fontColor=#FFFFFF;html=1;fontSize=5;" vertex="1" parent="Z1PE1oh3Be7AtQPSp_Xx-25">
          <mxGeometry x="74" width="36" height="14" as="geometry">
            <mxRectangle width="36" height="14" as="alternateBounds" />
          </mxGeometry>
        </mxCell>
        <mxCell id="Z1PE1oh3Be7AtQPSp_Xx-29" value="" style="shape=tableRow;horizontal=0;startSize=0;swimlaneHead=0;swimlaneBody=0;top=0;left=0;bottom=0;right=0;dropTarget=0;collapsible=0;recursiveResize=0;expand=0;fontStyle=0;strokeColor=inherit;fillColor=#ffffff;fontSize=5;" vertex="1" parent="Z1PE1oh3Be7AtQPSp_Xx-24">
          <mxGeometry y="14" width="110" height="14" as="geometry" />
        </mxCell>
        <mxCell id="Z1PE1oh3Be7AtQPSp_Xx-30" value="Value 1" style="connectable=0;recursiveResize=0;strokeColor=inherit;fillColor=inherit;align=center;whiteSpace=wrap;html=1;fontSize=5;" vertex="1" parent="Z1PE1oh3Be7AtQPSp_Xx-29">
          <mxGeometry width="37" height="14" as="geometry">
            <mxRectangle width="37" height="14" as="alternateBounds" />
          </mxGeometry>
        </mxCell>
        <mxCell id="Z1PE1oh3Be7AtQPSp_Xx-31" value="Value 2" style="connectable=0;recursiveResize=0;strokeColor=inherit;fillColor=inherit;align=center;whiteSpace=wrap;html=1;fontSize=5;" vertex="1" parent="Z1PE1oh3Be7AtQPSp_Xx-29">
          <mxGeometry x="37" width="37" height="14" as="geometry">
            <mxRectangle width="37" height="14" as="alternateBounds" />
          </mxGeometry>
        </mxCell>
        <mxCell id="Z1PE1oh3Be7AtQPSp_Xx-32" value="Value 3" style="connectable=0;recursiveResize=0;strokeColor=inherit;fillColor=inherit;align=center;whiteSpace=wrap;html=1;fontSize=5;" vertex="1" parent="Z1PE1oh3Be7AtQPSp_Xx-29">
          <mxGeometry x="74" width="36" height="14" as="geometry">
            <mxRectangle width="36" height="14" as="alternateBounds" />
          </mxGeometry>
        </mxCell>
        <mxCell id="Z1PE1oh3Be7AtQPSp_Xx-33" value="" style="shape=tableRow;horizontal=0;startSize=0;swimlaneHead=0;swimlaneBody=0;top=0;left=0;bottom=0;right=0;dropTarget=0;collapsible=0;recursiveResize=0;expand=0;fontStyle=1;strokeColor=inherit;fillColor=#EAF2D3;fontSize=5;" vertex="1" parent="Z1PE1oh3Be7AtQPSp_Xx-24">
          <mxGeometry y="28" width="110" height="14" as="geometry" />
        </mxCell>
        <mxCell id="Z1PE1oh3Be7AtQPSp_Xx-34" value="Value 4" style="connectable=0;recursiveResize=0;strokeColor=inherit;fillColor=inherit;whiteSpace=wrap;html=1;fontSize=5;" vertex="1" parent="Z1PE1oh3Be7AtQPSp_Xx-33">
          <mxGeometry width="37" height="14" as="geometry">
            <mxRectangle width="37" height="14" as="alternateBounds" />
          </mxGeometry>
        </mxCell>
        <mxCell id="Z1PE1oh3Be7AtQPSp_Xx-35" value="Value 5" style="connectable=0;recursiveResize=0;strokeColor=inherit;fillColor=inherit;whiteSpace=wrap;html=1;fontSize=5;" vertex="1" parent="Z1PE1oh3Be7AtQPSp_Xx-33">
          <mxGeometry x="37" width="37" height="14" as="geometry">
            <mxRectangle width="37" height="14" as="alternateBounds" />
          </mxGeometry>
        </mxCell>
        <mxCell id="Z1PE1oh3Be7AtQPSp_Xx-36" value="Value 6" style="connectable=0;recursiveResize=0;strokeColor=inherit;fillColor=inherit;whiteSpace=wrap;html=1;fontSize=5;" vertex="1" parent="Z1PE1oh3Be7AtQPSp_Xx-33">
          <mxGeometry x="74" width="36" height="14" as="geometry">
            <mxRectangle width="36" height="14" as="alternateBounds" />
          </mxGeometry>
        </mxCell>
        <mxCell id="Z1PE1oh3Be7AtQPSp_Xx-37" value="" style="shape=tableRow;horizontal=0;startSize=0;swimlaneHead=0;swimlaneBody=0;top=0;left=0;bottom=0;right=0;dropTarget=0;collapsible=0;recursiveResize=0;expand=0;fontStyle=0;strokeColor=inherit;fillColor=#ffffff;fontSize=5;" vertex="1" parent="Z1PE1oh3Be7AtQPSp_Xx-24">
          <mxGeometry y="42" width="110" height="14" as="geometry" />
        </mxCell>
        <mxCell id="Z1PE1oh3Be7AtQPSp_Xx-38" value="Value 7" style="connectable=0;recursiveResize=0;strokeColor=inherit;fillColor=inherit;fontStyle=0;align=center;whiteSpace=wrap;html=1;fontSize=5;" vertex="1" parent="Z1PE1oh3Be7AtQPSp_Xx-37">
          <mxGeometry width="37" height="14" as="geometry">
            <mxRectangle width="37" height="14" as="alternateBounds" />
          </mxGeometry>
        </mxCell>
        <mxCell id="Z1PE1oh3Be7AtQPSp_Xx-39" value="Value 8" style="connectable=0;recursiveResize=0;strokeColor=inherit;fillColor=inherit;fontStyle=0;align=center;whiteSpace=wrap;html=1;fontSize=5;" vertex="1" parent="Z1PE1oh3Be7AtQPSp_Xx-37">
          <mxGeometry x="37" width="37" height="14" as="geometry">
            <mxRectangle width="37" height="14" as="alternateBounds" />
          </mxGeometry>
        </mxCell>
        <mxCell id="Z1PE1oh3Be7AtQPSp_Xx-40" value="Value 9" style="connectable=0;recursiveResize=0;strokeColor=inherit;fillColor=inherit;fontStyle=0;align=center;whiteSpace=wrap;html=1;fontSize=5;" vertex="1" parent="Z1PE1oh3Be7AtQPSp_Xx-37">
          <mxGeometry x="74" width="36" height="14" as="geometry">
            <mxRectangle width="36" height="14" as="alternateBounds" />
          </mxGeometry>
        </mxCell>
        <mxCell id="Z1PE1oh3Be7AtQPSp_Xx-41" value="" style="shape=tableRow;horizontal=0;startSize=0;swimlaneHead=0;swimlaneBody=0;top=0;left=0;bottom=0;right=0;dropTarget=0;collapsible=0;recursiveResize=0;expand=0;fontStyle=1;strokeColor=inherit;fillColor=#EAF2D3;fontSize=5;" vertex="1" parent="Z1PE1oh3Be7AtQPSp_Xx-24">
          <mxGeometry y="56" width="110" height="14" as="geometry" />
        </mxCell>
        <mxCell id="Z1PE1oh3Be7AtQPSp_Xx-42" value="Value 10" style="connectable=0;recursiveResize=0;strokeColor=inherit;fillColor=inherit;whiteSpace=wrap;html=1;fontSize=5;" vertex="1" parent="Z1PE1oh3Be7AtQPSp_Xx-41">
          <mxGeometry width="37" height="14" as="geometry">
            <mxRectangle width="37" height="14" as="alternateBounds" />
          </mxGeometry>
        </mxCell>
        <mxCell id="Z1PE1oh3Be7AtQPSp_Xx-43" value="Value 11" style="connectable=0;recursiveResize=0;strokeColor=inherit;fillColor=inherit;whiteSpace=wrap;html=1;fontSize=5;" vertex="1" parent="Z1PE1oh3Be7AtQPSp_Xx-41">
          <mxGeometry x="37" width="37" height="14" as="geometry">
            <mxRectangle width="37" height="14" as="alternateBounds" />
          </mxGeometry>
        </mxCell>
        <mxCell id="Z1PE1oh3Be7AtQPSp_Xx-44" value="Value 12" style="connectable=0;recursiveResize=0;strokeColor=inherit;fillColor=inherit;whiteSpace=wrap;html=1;fontSize=5;" vertex="1" parent="Z1PE1oh3Be7AtQPSp_Xx-41">
          <mxGeometry x="74" width="36" height="14" as="geometry">
            <mxRectangle width="36" height="14" as="alternateBounds" />
          </mxGeometry>
        </mxCell>
        <mxCell id="Z1PE1oh3Be7AtQPSp_Xx-45" value="" style="rounded=1;whiteSpace=wrap;html=1;fillColor=#fff2cc;strokeColor=#d6b656;" vertex="1" parent="1">
          <mxGeometry x="190" y="40" width="80" height="240" as="geometry" />
        </mxCell>
        <mxCell id="Z1PE1oh3Be7AtQPSp_Xx-47" value="" style="endArrow=classic;html=1;rounded=0;labelBackgroundColor=default;shape=flexArrow;endWidth=22;endSize=4.33;width=9;fillColor=#cce5ff;strokeColor=#36393d;" edge="1" parent="1">
          <mxGeometry width="50" height="50" relative="1" as="geometry">
            <mxPoint x="156" y="80" as="sourcePoint" />
            <mxPoint x="186" y="80" as="targetPoint" />
          </mxGeometry>
        </mxCell>
        <mxCell id="Z1PE1oh3Be7AtQPSp_Xx-48" value="" style="endArrow=classic;html=1;rounded=0;labelBackgroundColor=default;shape=flexArrow;fillColor=#cce5ff;endWidth=22;endSize=4.33;width=9;strokeColor=#36393d;" edge="1" parent="1">
          <mxGeometry width="50" height="50" relative="1" as="geometry">
            <mxPoint x="156" y="159" as="sourcePoint" />
            <mxPoint x="186" y="159" as="targetPoint" />
          </mxGeometry>
        </mxCell>
        <mxCell id="Z1PE1oh3Be7AtQPSp_Xx-49" value="" style="endArrow=classic;html=1;rounded=0;labelBackgroundColor=default;shape=flexArrow;fillColor=#cce5ff;endWidth=22;endSize=4.33;width=9;strokeColor=#36393d;" edge="1" parent="1">
          <mxGeometry width="50" height="50" relative="1" as="geometry">
            <mxPoint x="158" y="242" as="sourcePoint" />
            <mxPoint x="188" y="242" as="targetPoint" />
          </mxGeometry>
        </mxCell>
        <mxCell id="Z1PE1oh3Be7AtQPSp_Xx-50" value="C&lt;span style=&quot;background-color: initial; font-size: 31px;&quot;&gt;L&lt;/span&gt;&lt;span style=&quot;background-color: initial; font-size: 31px;&quot;&gt;I&lt;/span&gt;&lt;span style=&quot;background-color: initial; font-size: 31px;&quot;&gt;P&lt;/span&gt;" style="text;strokeColor=none;align=center;fillColor=none;html=1;verticalAlign=middle;rounded=0;textDirection=ltr;fontSize=31;labelPosition=center;verticalLabelPosition=middle;whiteSpace=wrap;horizontal=1;fontStyle=0" vertex="1" parent="1">
          <mxGeometry x="215" y="100" width="30" height="110" as="geometry" />
        </mxCell>
        <mxCell id="Z1PE1oh3Be7AtQPSp_Xx-52" value="&lt;font style=&quot;font-size: 20px;&quot;&gt;&lt;b&gt;feats&lt;/b&gt;&lt;/font&gt;" style="rounded=1;whiteSpace=wrap;html=1;strokeWidth=2;fillWeight=4;hachureGap=8;hachureAngle=45;fillColor=#1ba1e2;sketch=1;" vertex="1" parent="1">
          <mxGeometry x="327" y="67.5" width="60" height="80" as="geometry" />
        </mxCell>
        <mxCell id="Z1PE1oh3Be7AtQPSp_Xx-51" value="" style="html=1;shadow=0;dashed=0;align=center;verticalAlign=middle;shape=mxgraph.arrows2.arrow;dy=0.72;dx=19;notch=0;fillColor=#cce5ff;strokeColor=#36393d;" vertex="1" parent="1">
          <mxGeometry x="275" y="98" width="45" height="20.5" as="geometry" />
        </mxCell>
        <mxCell id="Z1PE1oh3Be7AtQPSp_Xx-53" value="" style="rounded=1;whiteSpace=wrap;html=1;fillColor=#d5e8d4;strokeColor=#82b366;" vertex="1" parent="1">
          <mxGeometry x="437" y="40" width="80" height="130" as="geometry" />
        </mxCell>
        <mxCell id="Z1PE1oh3Be7AtQPSp_Xx-54" value="" style="rounded=1;whiteSpace=wrap;html=1;fillColor=#d5e8d4;strokeColor=#82b366;gradientColor=#97d077;" vertex="1" parent="1">
          <mxGeometry x="517" y="40" width="80" height="130" as="geometry" />
        </mxCell>
        <mxCell id="Z1PE1oh3Be7AtQPSp_Xx-55" value="" style="html=1;shadow=0;dashed=0;align=center;verticalAlign=middle;shape=mxgraph.arrows2.arrow;dy=0.58;dx=23;notch=0;fillColor=#cce5ff;strokeColor=#36393d;" vertex="1" parent="1">
          <mxGeometry x="393" y="96.5" width="40" height="22.5" as="geometry" />
        </mxCell>
        <mxCell id="Z1PE1oh3Be7AtQPSp_Xx-56" value="MMA" style="text;strokeColor=none;align=center;fillColor=none;html=1;verticalAlign=middle;whiteSpace=wrap;rounded=0;fontSize=20;fontStyle=1" vertex="1" parent="1">
          <mxGeometry x="447" y="92.75" width="60" height="30" as="geometry" />
        </mxCell>
        <mxCell id="Z1PE1oh3Be7AtQPSp_Xx-57" value="CA" style="text;strokeColor=none;align=center;fillColor=none;html=1;verticalAlign=middle;whiteSpace=wrap;rounded=0;fontSize=20;fontStyle=1" vertex="1" parent="1">
          <mxGeometry x="527" y="92" width="60" height="30" as="geometry" />
        </mxCell>
        <mxCell id="Z1PE1oh3Be7AtQPSp_Xx-58" value="" style="html=1;shadow=0;dashed=0;align=center;verticalAlign=middle;shape=mxgraph.arrows2.arrow;dy=0.58;dx=23;notch=0;fillColor=#cce5ff;strokeColor=#36393d;" vertex="1" parent="1">
          <mxGeometry x="604" y="93.75" width="40" height="22.5" as="geometry" />
        </mxCell>
        <mxCell id="Z1PE1oh3Be7AtQPSp_Xx-59" value="&lt;b&gt;CLASSIFIER&lt;/b&gt;" style="rounded=1;whiteSpace=wrap;html=1;fillColor=#dae8fc;gradientColor=#7ea6e0;strokeColor=#6c8ebf;" vertex="1" parent="1">
          <mxGeometry x="651" y="55" width="80" height="100" as="geometry" />
        </mxCell>
        <mxCell id="Z1PE1oh3Be7AtQPSp_Xx-60" value="" style="html=1;shadow=0;dashed=0;align=center;verticalAlign=middle;shape=mxgraph.arrows2.arrow;dy=0.58;dx=23;notch=0;fillColor=#cce5ff;strokeColor=#36393d;rotation=90;" vertex="1" parent="1">
          <mxGeometry x="671" y="170.5" width="40" height="22.5" as="geometry" />
        </mxCell>
        <mxCell id="Z1PE1oh3Be7AtQPSp_Xx-61" value="cls" style="text;strokeColor=none;align=center;fillColor=none;html=1;verticalAlign=middle;whiteSpace=wrap;rounded=0;fontSize=20;" vertex="1" parent="1">
          <mxGeometry x="661" y="200" width="60" height="30" as="geometry" />
        </mxCell>
        <mxCell id="Z1PE1oh3Be7AtQPSp_Xx-63" value="" style="triangle;whiteSpace=wrap;html=1;rotation=-90;fillColor=#cdeb8b;strokeColor=#36393d;" vertex="1" parent="1">
          <mxGeometry x="220" y="260" width="20" height="80" as="geometry" />
        </mxCell>
        <mxCell id="Z1PE1oh3Be7AtQPSp_Xx-65" value="" style="rounded=1;whiteSpace=wrap;html=1;fillColor=#fff2cc;strokeColor=#d6b656;" vertex="1" parent="1">
          <mxGeometry x="60" y="320" width="377" height="260" as="geometry" />
        </mxCell>
        <mxCell id="Z1PE1oh3Be7AtQPSp_Xx-67" value="" style="endArrow=classic;html=1;rounded=0;labelBackgroundColor=default;shape=flexArrow;endWidth=22;endSize=4.33;width=9;fillColor=#cce5ff;strokeColor=#36393d;" edge="1" parent="1">
          <mxGeometry width="50" height="50" relative="1" as="geometry">
            <mxPoint x="30" y="386" as="sourcePoint" />
            <mxPoint x="60" y="386" as="targetPoint" />
          </mxGeometry>
        </mxCell>
        <mxCell id="Z1PE1oh3Be7AtQPSp_Xx-68" value="" style="endArrow=classic;html=1;rounded=0;labelBackgroundColor=default;shape=flexArrow;endWidth=22;endSize=4.33;width=9;fillColor=#cce5ff;strokeColor=#36393d;" edge="1" parent="1">
          <mxGeometry width="50" height="50" relative="1" as="geometry">
            <mxPoint x="30" y="443" as="sourcePoint" />
            <mxPoint x="60" y="443" as="targetPoint" />
          </mxGeometry>
        </mxCell>
        <mxCell id="Z1PE1oh3Be7AtQPSp_Xx-69" value="" style="endArrow=classic;html=1;rounded=0;labelBackgroundColor=default;shape=flexArrow;endWidth=22;endSize=4.33;width=9;fillColor=#cce5ff;strokeColor=#36393d;" edge="1" parent="1">
          <mxGeometry width="50" height="50" relative="1" as="geometry">
            <mxPoint x="30" y="510" as="sourcePoint" />
            <mxPoint x="60" y="510" as="targetPoint" />
          </mxGeometry>
        </mxCell>
        <mxCell id="Z1PE1oh3Be7AtQPSp_Xx-70" value="" style="html=1;shadow=0;dashed=0;align=center;verticalAlign=middle;shape=mxgraph.arrows2.arrow;dy=0.72;dx=19;notch=0;fillColor=#cce5ff;strokeColor=#36393d;" vertex="1" parent="1">
          <mxGeometry x="275" y="220.75" width="45" height="20.5" as="geometry" />
        </mxCell>
        <mxCell id="Z1PE1oh3Be7AtQPSp_Xx-72" value="&lt;font style=&quot;font-size: 20px;&quot;&gt;&lt;b&gt;logits&lt;/b&gt;&lt;/font&gt;" style="rounded=1;whiteSpace=wrap;html=1;strokeWidth=2;fillWeight=4;hachureGap=8;hachureAngle=45;fillColor=#1ba1e2;sketch=1;" vertex="1" parent="1">
          <mxGeometry x="327" y="191" width="60" height="80" as="geometry" />
        </mxCell>
      </root>
    </mxGraphModel>
  </diagram>
</mxfile>
